# xmcd
#
# Track frame offsets:
#	150
#	11413
#	26227
#	40533
#	56584
#	72890
#	87678
#	105447
#	118587
#	133155
#	148128
#
# Disc length: 2189 seconds
#
# Revision: 0
# Processed by: cddbd v1.5.1PL0 Copyright (c) Steve Scherf et al.
# Submitted via: EasyCDDAExtractor 8.0.1.1
#
DISCID=98088b0b
DTITLE=Brittany Roe - Is It Hot In Here
DYEAR=2004
DGENRE=Country
TTITLE0=Is It Hot In Here
TTITLE1=Where In Your World Am I
TTITLE2=Shoes
TTITLE3=I Don't Wanna Live Like That
TTITLE4=Cuttin' Up And Carryin' On
TTITLE5=It's All Over
TTITLE6=Somebody's Somebody
TTITLE7=What's Good For Me
TTITLE8=Just Enough To Go On
TTITLE9=I Jumped
TTITLE10=Behind His Last Goodbye
EXTD=
EXTT0=
EXTT1=
EXTT2=
EXTT3=
EXTT4=
EXTT5=
EXTT6=
EXTT7=
EXTT8=
EXTT9=
EXTT10=
PLAYORDER=
